<?xml version="1.0" encoding="UTF-8" standalone="no"?>
<svg
   max-width="232"
   height="104"
   viewBox="0 0 232 104"
   fill="none"
   version="1.1"
   id="svg6"
   sodipodi:docname="SkyTEM_New.svg"
   inkscape:version="1.4.2 (f4327f4, 2025-05-13)"
   xmlns:inkscape="http://www.inkscape.org/namespaces/inkscape"
   xmlns:sodipodi="http://sodipodi.sourceforge.net/DTD/sodipodi-0.dtd"
   xmlns="http://www.w3.org/2000/svg"
   xmlns:svg="http://www.w3.org/2000/svg">
  <sodipodi:namedview
     id="namedview6"
     pagecolor="#ffffff"
     bordercolor="#999999"
     borderopacity="1"
     inkscape:showpageshadow="2"
     inkscape:pageopacity="0"
     inkscape:pagecheckerboard="0"
     inkscape:deskcolor="#d1d1d1"
     inkscape:zoom="22.481119"
     inkscape:cx="153.84021"
     inkscape:cy="53.266921"
     inkscape:window-width="3840"
     inkscape:window-height="2054"
     inkscape:window-x="-11"
     inkscape:window-y="-11"
     inkscape:window-maximized="1"
     inkscape:current-layer="g6" />
  <g
     clip-path="url(#clip0_657_2981)"
     id="g6">
    <path
       d="M59.9227 71.4765C58.6278 77.794 59.2056 83.7141 61.8949 88.8396C72.5726 109.103 112.693 109.063 151.519 88.7204C190.326 68.3972 213.135 35.4589 202.457 15.1754C191.78 -5.10805 151.659 -5.04845 112.833 15.2946C104.048 19.8639 95.7606 25.3271 88.091 31.6049C94.406 26.5787 101.159 22.0889 108.251 18.2348C143.033 0.0174568 178.712 0.494247 187.955 18.0362C197.178 35.5781 176.5 64.563 141.698 82.8003C106.916 101.038 71.2179 101.574 61.9945 84.0518C60.0024 80.1779 59.2653 75.7875 59.9227 71.4964"
       fill="#96999C"
       id="path1" />
    <path
       d="M38.2882 51.5705C37.1925 50.2196 35.5988 49.3455 33.8657 49.1269C33.4075 49.0673 32.9493 49.0276 32.4912 49.0077H10.6577L11.5143 45.4517H40.7783L42.372 38.2998H14.9208C13.4068 38.2998 11.9128 38.6177 10.5183 39.1739C9.52224 39.5911 8.56603 40.1275 7.66959 40.7434C4.76112 42.8492 3.02799 45.5907 2.90847 48.2925C2.82878 50.299 3.70531 52.2261 5.25915 53.4975C6.57393 54.6895 8.28714 55.3252 10.0601 55.2656H32.3119L31.5947 58.9607H1.91242L0 66.9271H28.5468C29.4831 66.9271 30.4194 66.7682 31.2959 66.4702C35.4195 65.1392 38.5471 61.7619 39.5233 57.5502C39.9815 55.4841 39.5233 53.2989 38.2882 51.5705Z"
       fill="#0B1F42"
       id="path2" />
    <path
       d="M109.446 38.3196L106.856 48.9878H87.3932L89.9829 38.3196H68.3288L55.8782 45.4118L54.2646 46.3257C53.4877 46.8223 52.7506 47.3786 52.0533 48.0143C51.635 48.4117 51.2764 48.7891 50.9378 49.1666L53.5275 38.3196H46.077L39.2441 66.927H46.7145L49.2843 56.1198C49.882 57.57 50.878 58.8216 52.1729 59.7156L61.7549 66.927H101.637C102.374 66.9469 103.091 66.8873 103.808 66.7681C105.322 66.4502 106.717 65.7748 107.912 64.8013C110.203 63.2518 111.836 60.9075 112.514 58.2455L117.275 38.3196H109.426H109.446ZM57.7507 52.8021L81.9747 39.0944L80.4208 46.0674C79.9427 48.0541 79.624 50.0208 80.899 52.1862C82.0345 54.153 83.7875 55.1066 86.4569 55.2258H105.581L104.545 58.9805H77.2335L75.5004 66.2118L57.7707 52.822L57.7507 52.8021Z"
       fill="#0B1F42"
       id="path3" />
    <path
       d="M159.229 45.4118H186.68L188.373 38.3196H162.934C162.655 38.3196 162.376 38.3196 162.117 38.3593C160.802 38.3593 159.508 38.5977 158.272 39.0546C156.201 39.8493 154.428 41.2399 153.193 43.0676C152.197 44.3391 151.499 45.8092 151.161 47.3786L148.531 58.4243C148.212 60.0732 148.451 61.7618 149.169 63.2716C150.105 65.5563 152.376 67.0264 154.866 66.927H181.54L183.453 58.9607H155.842L156.679 55.2059H184.269L185.823 49.0275H158.173L159.229 45.4317V45.4118Z"
       fill="#0B1F42"
       id="path5"
       style="paint-order:stroke fill markers;stroke:#ffffff;stroke-opacity:1;stroke-width:2.5;stroke-dasharray:none" />
    <path
       d="M153.95 38.3196H117.952L116.239 45.4118H129.925L124.825 66.927H133.033L138.132 45.4118H151.778L153.95 38.3196Z"
       fill="#0B1F42"
       id="path4" />
    <path
       d="m 231.423,41.1604 c -0.658,-1.9071 -2.57,-3.0792 -4.562,-2.821 -1.753,0.2186 -3.387,1.0331 -4.602,2.3244 -4.502,4.9268 -11.156,14.3037 -13.367,17.4625 l -3.028,-14.4428 c -0.06,-0.298 -0.558,-2.8608 -1.474,-3.9336 -0.897,-1.0131 -2.152,-1.629 -3.486,-1.7283 -1.076,-0.0795 -2.152,0.0794 -3.168,0.4768 -1.992,0.7748 -3.665,2.1853 -4.761,4.0328 -0.558,0.9139 -0.956,1.8873 -1.195,2.9204 l -5.12,21.4754 h 7.451 l 4.223,-17.681 c 0.876,3.6753 2.55,10.5888 2.988,11.9397 0.279,0.8542 0.478,1.5297 0.637,2.0661 0.18,0.6357 0.319,1.1323 0.518,1.629 0.718,1.9668 2.65,3.2581 4.762,3.1389 h 0.179 c 1.215,-0.0398 2.709,-0.9337 4.462,-2.682 1.415,-1.4303 8.247,-10.7476 11.435,-15.158 l -4.044,17.0453 h 7.47 l 4.98,-20.8795 c 0.08,-0.3178 0.14,-0.6357 0.18,-0.9535 v -0.1391 c 0.239,-1.3708 0.079,-2.7813 -0.458,-4.0726"
       fill="#0b1f42"
       id="path6"
       style="display:inline;stroke:#ffffff;stroke-width:2.5;stroke-dasharray:none;stroke-opacity:1;paint-order:stroke fill markers" />
  </g>
  <defs
     id="defs6">
    <clipPath
       id="clip0_657_2981">
      <rect
         width="232"
         height="104"
         fill="white"
         id="rect6" />
    </clipPath>
  </defs>
</svg>
