<?xml version="1.0" encoding="UTF-8" standalone="no"?>
<svg
   max-width="232"
   height="104"
   viewBox="0 0 53824 104"
   fill="none"
   version="1.1"
   id="svg6"
   sodipodi:docname="SkyTEM_Monochrome.svg"
   inkscape:version="1.4.2 (f4327f4, 2025-05-13)"
   width="53824"
   xmlns:inkscape="http://www.inkscape.org/namespaces/inkscape"
   xmlns:sodipodi="http://sodipodi.sourceforge.net/DTD/sodipodi-0.dtd"
   xmlns="http://www.w3.org/2000/svg"
   xmlns:svg="http://www.w3.org/2000/svg">
  <sodipodi:namedview
     id="namedview6"
     pagecolor="#ffffff"
     bordercolor="#999999"
     borderopacity="1"
     inkscape:showpageshadow="2"
     inkscape:pageopacity="0"
     inkscape:pagecheckerboard="0"
     inkscape:deskcolor="#d1d1d1"
     inkscape:zoom="11.24056"
     inkscape:cx="89.363877"
     inkscape:cy="76.464164"
     inkscape:window-width="3840"
     inkscape:window-height="2054"
     inkscape:window-x="-11"
     inkscape:window-y="-11"
     inkscape:window-maximized="1"
     inkscape:current-layer="g6"
     inkscape:export-bgcolor="#00000000">
    <inkscape:page
       x="0"
       y="0"
       width="53824"
       height="104"
       id="page2"
       margin="0"
       bleed="0" />
  </sodipodi:namedview>
  <g
     clip-path="url(#clip0_657_2981)"
     id="g6"
     style="fill:#ffffff;fill-opacity:1">
    <path
       id="path1"
       style="fill:#000000;fill-opacity:1"
       d="m 168.20117,0 c -16.21812,0.02235 -35.95614,5.1233968 -55.36914,15.294922 -8.785,4.5693 -17.070633,10.032747 -24.740233,16.310547 6.315,-5.0262 13.068153,-9.516994 20.160153,-13.371094 34.782,-18.2173432 70.46013,-17.73921824 79.70313,-0.197266 2.9387,5.58934 2.84112,12.340231 0.21875,19.535157 h 1.15429 l -2.05273,8.591796 h -3.29883 c -0.42818,0.704465 -0.87811,1.410397 -1.34765,2.117188 h 4.16015 l -1.93164,7.677734 h -8.10937 c -0.6537,0.753096 -1.32912,1.504646 -2.02539,2.253907 h 9.68554 l -2.14258,8.921875 c 1.6438,-1.545993 3.21007,-3.109952 4.69532,-4.685547 l 4.09179,-17.164063 c 0.25643,-1.10843 0.68809,-2.157563 1.28516,-3.136718 1.18117,-1.988625 2.98495,-3.511396 5.12891,-4.345704 1.12013,-0.43813 2.31021,-0.61301 3.49609,-0.52539 0.69666,0.05186 1.37343,0.227103 2.00195,0.511718 2.89633,-8.284553 2.92037,-16.10125 -0.50781,-22.613281 C 197.11853,5.0340564 184.4193,-0.02235 168.20117,0 Z m 31.92774,38.759766 c -0.72035,0.02622 -1.43179,0.17213 -2.11524,0.439453 v 0.002 h -0.002 c -1.83762,0.714753 -3.37613,2.013272 -4.38672,3.716797 l -0.004,0.0039 -0.002,0.0039 c -0.51723,0.84712 -0.88239,1.741511 -1.10352,2.697266 l -0.002,0.0039 -3.46484,14.541016 c 6.17398,-6.962781 10.74651,-14.107848 13.39648,-20.966797 -0.49669,-0.240217 -1.0373,-0.386314 -1.59375,-0.427734 -0.24136,-0.01776 -0.48254,-0.02241 -0.72265,-0.01367 z m -12.91797,1.216796 c -0.67492,1.548458 -1.46038,3.113 -2.35352,4.6875 h 1.23438 z m -5.60742,9.804688 c -1.09786,1.559358 -2.29507,3.120783 -3.58399,4.677734 h 5.66797 l 1.17773,-4.677734 z m -8.30469,9.931641 c -2.1222,2.1858 -4.4228,4.347651 -6.88672,6.466797 h 14.54101 l 1.55274,-6.466797 z m -8.66602,7.966797 c -6.62814,5.47207 -14.3528,10.623475 -22.93554,15.121093 -34.782,18.237699 -70.479729,18.774149 -79.703129,1.251953 -1.9921,-3.8739 -2.729666,-8.26554 -2.072266,-12.55664 v -0.01953 c -1.2949,6.3175 -0.716644,12.237782 1.972656,17.363282 10.6777,20.263394 50.798999,20.223454 89.624999,-0.119141 11.65544,-6.103944 21.86706,-13.34584 30.16211,-21.041015 z" />
    <path
       d="m 38.2882,51.5705 c -1.0957,-1.3509 -2.6894,-2.225 -4.4225,-2.4436 -0.4582,-0.0596 -0.9164,-0.0993 -1.3745,-0.1192 H 10.6577 l 0.8566,-3.556 h 29.264 L 42.372,38.2998 H 14.9208 c -1.514,0 -3.008,0.3179 -4.4025,0.8741 -0.99606,0.4172 -1.95227,0.9536 -2.84871,1.5695 -2.90847,2.1058 -4.6416,4.8473 -4.76112,7.5491 -0.07969,2.0065 0.79684,3.9336 2.35068,5.205 1.31478,1.192 3.02799,1.8277 4.80095,1.7681 h 22.2518 l -0.7172,3.6951 H 1.91242 L 0,66.9271 h 28.5468 c 0.9363,0 1.8726,-0.1589 2.7491,-0.4569 4.1236,-1.331 7.2512,-4.7083 8.2274,-8.92 0.4582,-2.0661 0,-4.2513 -1.2351,-5.9797 z"
       fill="#0B1F42"
       id="path2"
       style="fill:#000000;fill-opacity:1" />
    <path
       d="m 109.446,38.3196 -2.59,10.6682 H 87.3932 L 89.9829,38.3196 H 68.3288 l -12.4506,7.0922 -1.6136,0.9139 c -0.7769,0.4966 -1.514,1.0529 -2.2113,1.6886 -0.4183,0.3974 -0.7769,0.7748 -1.1155,1.1523 l 2.5897,-10.847 H 46.077 L 39.2441,66.927 h 7.4704 l 2.5698,-10.8072 c 0.5977,1.4502 1.5937,2.7018 2.8886,3.5958 l 9.582,7.2114 h 39.8821 c 0.737,0.0199 1.454,-0.0397 2.171,-0.1589 1.514,-0.3179 2.909,-0.9933 4.104,-1.9668 2.291,-1.5495 3.924,-3.8938 4.602,-6.5558 l 4.761,-19.9259 h -7.849 z m -51.6953,14.4825 24.224,-13.7077 -1.5539,6.973 c -0.4781,1.9867 -0.7968,3.9534 0.4782,6.1188 1.1355,1.9668 2.8885,2.9204 5.5579,3.0396 h 19.1241 l -1.036,3.7547 H 77.2335 L 75.5004,66.2118 57.7707,52.822 Z"
       fill="#0B1F42"
       id="path3"
       style="fill:#000000;fill-opacity:1" />
    <path
       d="m 159.229,45.4118 h 27.451 l 1.693,-7.0922 h -25.439 c -0.279,0 -0.558,0 -0.817,0.0397 -1.315,0 -2.609,0.2384 -3.845,0.6953 -2.071,0.7947 -3.844,2.1853 -5.079,4.013 -0.996,1.2715 -1.694,2.7416 -2.032,4.311 l -2.63,11.0457 c -0.319,1.6489 -0.08,3.3375 0.638,4.8473 0.936,2.2847 3.207,3.7548 5.697,3.6554 h 26.674 l 1.913,-7.9663 h -27.611 l 0.837,-3.7548 h 27.59 l 1.554,-6.1784 h -27.65 l 1.056,-3.5958 z"
       fill="#0B1F42"
       id="path5"
       style="fill:#000000;fill-opacity:1;stroke:none;stroke-width:1.5;stroke-dasharray:none;stroke-opacity:1;paint-order:stroke fill markers" />
    <path
       d="m 153.95,38.3196 h -35.998 l -1.713,7.0922 h 13.686 l -5.1,21.5152 h 8.208 l 5.099,-21.5152 h 13.646 z"
       fill="#0B1F42"
       id="path4"
       style="fill:#000000;fill-opacity:1" />
    <path
       d="m 231.423,41.1604 c -0.658,-1.9071 -2.57,-3.0792 -4.562,-2.821 -1.753,0.2186 -3.387,1.0331 -4.602,2.3244 -4.502,4.9268 -11.156,14.3037 -13.367,17.4625 l -3.028,-14.4428 c -0.06,-0.298 -0.558,-2.8608 -1.474,-3.9336 -0.897,-1.0131 -2.152,-1.629 -3.486,-1.7283 -1.076,-0.0795 -2.152,0.0794 -3.168,0.4768 -1.992,0.7748 -3.665,2.1853 -4.761,4.0328 -0.558,0.9139 -0.956,1.8873 -1.195,2.9204 l -5.12,21.4754 h 7.451 l 4.223,-17.681 c 0.876,3.6753 2.55,10.5888 2.988,11.9397 0.279,0.8542 0.478,1.5297 0.637,2.0661 0.18,0.6357 0.319,1.1323 0.518,1.629 0.718,1.9668 2.65,3.2581 4.762,3.1389 h 0.179 c 1.215,-0.0398 2.709,-0.9337 4.462,-2.682 1.415,-1.4303 8.247,-10.7476 11.435,-15.158 l -4.044,17.0453 h 7.47 l 4.98,-20.8795 c 0.08,-0.3178 0.14,-0.6357 0.18,-0.9535 v -0.1391 c 0.239,-1.3708 0.079,-2.7813 -0.458,-4.0726"
       fill="#0b1f42"
       id="path6"
       style="display:inline;fill:#000000;fill-opacity:1;stroke:none;stroke-width:1.5;stroke-dasharray:none;stroke-opacity:1;paint-order:stroke fill markers" />
  </g>
  <defs
     id="defs6">
    <clipPath
       id="clip0_657_2981">
      <rect
         width="232"
         height="104"
         fill="#ffffff"
         id="rect6"
         x="0"
         y="0" />
    </clipPath>
  </defs>
</svg>
