<?xml version="1.0" encoding="UTF-8" standalone="no"?>
<svg
   max-width="232"
   height="104"
   viewBox="0 0 53824 104"
   fill="none"
   version="1.1"
   id="svg6"
   sodipodi:docname="SkyTEM_New.svg"
   inkscape:version="1.4.2 (f4327f4, 2025-05-13)"
   width="53824"
   xmlns:inkscape="http://www.inkscape.org/namespaces/inkscape"
   xmlns:sodipodi="http://sodipodi.sourceforge.net/DTD/sodipodi-0.dtd"
   xmlns="http://www.w3.org/2000/svg"
   xmlns:svg="http://www.w3.org/2000/svg">
  <sodipodi:namedview
     id="namedview6"
     pagecolor="#ffffff"
     bordercolor="#999999"
     borderopacity="1"
     inkscape:showpageshadow="2"
     inkscape:pageopacity="0"
     inkscape:pagecheckerboard="0"
     inkscape:deskcolor="#d1d1d1"
     inkscape:zoom="22.481119"
     inkscape:cx="153.84021"
     inkscape:cy="53.266921"
     inkscape:window-width="3840"
     inkscape:window-height="2054"
     inkscape:window-x="-11"
     inkscape:window-y="-11"
     inkscape:window-maximized="1"
     inkscape:current-layer="g6">
    <inkscape:page
       x="0"
       y="0"
       width="53824"
       height="104"
       id="page2"
       margin="0"
       bleed="0" />
  </sodipodi:namedview>
  <g
     clip-path="url(#clip0_657_2981)"
     id="g6">
    <path
       id="path1"
       style="fill:#ffffff;fill-opacity:1"
       d="m 168.20117,0 c -16.21812,0.02235 -35.95614,5.1233968 -55.36914,15.294922 -8.785,4.5693 -17.070633,10.032747 -24.740233,16.310547 6.315,-5.0262 13.068153,-9.516994 20.160153,-13.371094 34.782,-18.2173432 70.46013,-17.73921824 79.70313,-0.197266 2.87052,5.45965 2.84522,12.027675 0.39844,19.035157 h 1.60742 l -2.28906,9.591796 h -4.00391 c -0.23073,0.371408 -0.46678,0.743182 -0.70899,1.115235 h 4.47266 l -2.18359,8.679687 h -8.9375 c -0.36894,0.418541 -0.74484,0.836552 -1.12696,1.253907 h 9.85938 l -2.10938,8.789062 c 1.15449,-1.103247 2.26952,-2.21574 3.34375,-3.333984 l 4.29102,-18.003907 c 0.2687,-1.157713 0.72039,-2.255508 1.34375,-3.277343 v -0.002 h 0.002 v -0.002 c 1.23806,-2.079511 3.12816,-3.671876 5.3711,-4.544921 1.18955,-0.465287 2.45766,-0.653577 3.71679,-0.560547 0.7393,0.05503 1.45819,0.238071 2.12696,0.535156 2.73243,-8.107696 2.69053,-15.74962 -0.67188,-22.136719 C 197.11853,5.0340564 184.4193,-0.02235 168.20117,0 Z m 31.94727,39.259766 c -0.6653,0.02446 -1.32129,0.159113 -1.95313,0.40625 h -0.002 c -1.7347,0.674721 -3.18502,1.898318 -4.13867,3.505859 l -0.004,0.0059 -0.004,0.0078 c -0.49004,0.8026 -0.83575,1.64659 -1.04493,2.550781 v 0.0039 l -3.24804,13.623047 c 2.71446,-3.129817 5.10471,-6.293853 7.14062,-9.447265 l 0.22852,-0.957032 h 0.3789 c 1.9469,-3.123755 3.54249,-6.234804 4.75977,-9.291015 -0.44934,-0.223066 -0.93968,-0.358849 -1.44531,-0.396485 -0.22322,-0.01649 -0.44621,-0.01987 -0.66797,-0.01172 z m -13.98633,2.958984 c -0.32305,0.646408 -0.66531,1.29489 -1.02539,1.945312 h 0.56055 z m -4.91406,8.060547 c -0.87985,1.226775 -1.81836,2.454398 -2.81641,3.679687 h 4.86719 l 0.92578,-3.679687 z m -8.43946,9.933594 c -1.81643,1.844169 -3.75781,3.670209 -5.81836,5.466797 h 13.57032 l 1.3125,-5.466797 z m -8.78711,7.966797 c -6.49054,5.285862 -14.00329,10.260679 -22.32421,14.621093 -34.782,18.237699 -70.479729,18.774149 -79.703129,1.251953 -1.9921,-3.8739 -2.729666,-8.26554 -2.072266,-12.55664 v -0.01953 c -1.2949,6.3175 -0.716644,12.237782 1.972656,17.363282 10.6777,20.263394 50.798999,20.223454 89.624999,-0.119141 11.40213,-5.971285 21.42268,-13.032359 29.61914,-20.541015 z" />
    <path
       d="m 38.2882,51.5705 c -1.0957,-1.3509 -2.6894,-2.225 -4.4225,-2.4436 -0.4582,-0.0596 -0.9164,-0.0993 -1.3745,-0.1192 H 10.6577 l 0.8566,-3.556 h 29.264 L 42.372,38.2998 H 14.9208 c -1.514,0 -3.008,0.3179 -4.4025,0.8741 -0.99606,0.4172 -1.95227,0.9536 -2.84871,1.5695 -2.90847,2.1058 -4.6416,4.8473 -4.76112,7.5491 -0.07969,2.0065 0.79684,3.9336 2.35068,5.205 1.31478,1.192 3.02799,1.8277 4.80095,1.7681 h 22.2518 l -0.7172,3.6951 H 1.91242 L 0,66.9271 h 28.5468 c 0.9363,0 1.8726,-0.1589 2.7491,-0.4569 4.1236,-1.331 7.2512,-4.7083 8.2274,-8.92 0.4582,-2.0661 0,-4.2513 -1.2351,-5.9797 z"
       fill="#0B1F42"
       id="path2"
       style="fill:#ffffff;fill-opacity:1" />
    <path
       d="m 109.446,38.3196 -2.59,10.6682 H 87.3932 L 89.9829,38.3196 H 68.3288 l -12.4506,7.0922 -1.6136,0.9139 c -0.7769,0.4966 -1.514,1.0529 -2.2113,1.6886 -0.4183,0.3974 -0.7769,0.7748 -1.1155,1.1523 l 2.5897,-10.847 H 46.077 L 39.2441,66.927 h 7.4704 l 2.5698,-10.8072 c 0.5977,1.4502 1.5937,2.7018 2.8886,3.5958 l 9.582,7.2114 h 39.8821 c 0.737,0.0199 1.454,-0.0397 2.171,-0.1589 1.514,-0.3179 2.909,-0.9933 4.104,-1.9668 2.291,-1.5495 3.924,-3.8938 4.602,-6.5558 l 4.761,-19.9259 h -7.849 z m -51.6953,14.4825 24.224,-13.7077 -1.5539,6.973 c -0.4781,1.9867 -0.7968,3.9534 0.4782,6.1188 1.1355,1.9668 2.8885,2.9204 5.5579,3.0396 h 19.1241 l -1.036,3.7547 H 77.2335 L 75.5004,66.2118 57.7707,52.822 Z"
       fill="#0B1F42"
       id="path3"
       style="fill:#ffffff;fill-opacity:1" />
    <path
       d="m 159.229,45.4118 h 27.451 l 1.693,-7.0922 h -25.439 c -0.279,0 -0.558,0 -0.817,0.0397 -1.315,0 -2.609,0.2384 -3.845,0.6953 -2.071,0.7947 -3.844,2.1853 -5.079,4.013 -0.996,1.2715 -1.694,2.7416 -2.032,4.311 l -2.63,11.0457 c -0.319,1.6489 -0.08,3.3375 0.638,4.8473 0.936,2.2847 3.207,3.7548 5.697,3.6554 h 26.674 l 1.913,-7.9663 h -27.611 l 0.837,-3.7548 h 27.59 l 1.554,-6.1784 h -27.65 l 1.056,-3.5958 z"
       fill="#0B1F42"
       id="path5"
       style="fill:#ffffff;fill-opacity:1;stroke:#ffffff;stroke-width:2.5;stroke-dasharray:none;stroke-opacity:1;paint-order:stroke fill markers" />
    <path
       d="m 153.95,38.3196 h -35.998 l -1.713,7.0922 h 13.686 l -5.1,21.5152 h 8.208 l 5.099,-21.5152 h 13.646 z"
       fill="#0B1F42"
       id="path4"
       style="fill:#ffffff;fill-opacity:1" />
    <path
       d="m 231.423,41.1604 c -0.658,-1.9071 -2.57,-3.0792 -4.562,-2.821 -1.753,0.2186 -3.387,1.0331 -4.602,2.3244 -4.502,4.9268 -11.156,14.3037 -13.367,17.4625 l -3.028,-14.4428 c -0.06,-0.298 -0.558,-2.8608 -1.474,-3.9336 -0.897,-1.0131 -2.152,-1.629 -3.486,-1.7283 -1.076,-0.0795 -2.152,0.0794 -3.168,0.4768 -1.992,0.7748 -3.665,2.1853 -4.761,4.0328 -0.558,0.9139 -0.956,1.8873 -1.195,2.9204 l -5.12,21.4754 h 7.451 l 4.223,-17.681 c 0.876,3.6753 2.55,10.5888 2.988,11.9397 0.279,0.8542 0.478,1.5297 0.637,2.0661 0.18,0.6357 0.319,1.1323 0.518,1.629 0.718,1.9668 2.65,3.2581 4.762,3.1389 h 0.179 c 1.215,-0.0398 2.709,-0.9337 4.462,-2.682 1.415,-1.4303 8.247,-10.7476 11.435,-15.158 l -4.044,17.0453 h 7.47 l 4.98,-20.8795 c 0.08,-0.3178 0.14,-0.6357 0.18,-0.9535 v -0.1391 c 0.239,-1.3708 0.079,-2.7813 -0.458,-4.0726"
       fill="#0b1f42"
       id="path6"
       style="display:inline;fill:#ffffff;fill-opacity:1;stroke:#ffffff;stroke-width:2.5;stroke-dasharray:none;stroke-opacity:1;paint-order:stroke fill markers" />
  </g>
  <defs
     id="defs6">
    <clipPath
       id="clip0_657_2981">
      <rect
         width="232"
         height="104"
         fill="#ffffff"
         id="rect6"
         x="0"
         y="0" />
    </clipPath>
  </defs>
</svg>
